<svg width="64" height="64" fill="none" xmlns="http://www.w3.org/2000/svg"><path d="M0 64V0h64v64H0Z" fill="#FFD600"/><path d="M41.845 47.906c1.23 1.998 2.567 3.913 5.4 3.913 2.378 0 3.626-1.183 3.626-2.818 0-1.957-1.29-2.652-3.908-3.792l-1.434-.612c-4.14-1.756-6.895-3.957-6.895-8.606 0-4.284 3.28-7.545 8.406-7.545 3.65 0 6.272 1.264 8.163 4.574l-4.469 2.857c-.983-1.756-2.046-2.448-3.694-2.448-1.682 0-2.747 1.062-2.747 2.448 0 1.714 1.067 2.407 3.529 3.469l1.435.611c4.88 2.079 7.632 4.201 7.632 8.973 0 5.141-4.06 7.959-9.511 7.959-5.332 0-8.36-2.676-10.045-5.988l4.512-2.995Zm-20.597.146c.9 1.61 2.267 2.85 4.233 2.85 1.88 0 2.963-.744 2.963-3.633V28.445h5.926V48.18c0 5.985-3.472 8.709-8.543 8.709-4.581 0-7.888-3.104-9.235-5.988l4.656-2.85Z" fill="#000001"/></svg>